<svg viewBox="0 0 512 512" fill="none" xmlns="http://www.w3.org/2000/svg">
<path d="M127.26 167.885C126.312 164.826 125.595 161.67 124.862 158.523C125.003 161.64 125.331 164.709 125.331 167.862C125.331 174.6 124.998 181.303 124.34 187.95C123.786 193.546 122.875 199.073 121.867 204.574C121.677 205.608 121.607 206.668 121.402 207.699C120.105 214.21 118.492 220.642 116.574 226.973C114.656 233.305 112.431 239.535 109.91 245.641C107.389 251.748 104.571 257.731 101.465 263.569C98.3591 269.407 94.9671 275.099 91.2953 280.623C87.6234 286.148 83.6721 291.504 79.4525 296.671C75.2333 301.837 70.7449 306.814 65.9958 311.579C61.2467 316.343 56.2859 320.847 51.1361 325.081C46.6131 328.799 41.8872 332.22 37.0871 335.515C31.5808 339.199 23.9612 344.049 18.142 347.165C17.4446 347.538 16.7016 347.815 16.0001 348.18C18.7529 351.527 22.1363 355.374 25.1919 358.439C28.2475 361.505 31.4492 364.424 34.7846 367.186C37.8081 369.689 41.9472 372.752 45.183 374.988C48.7762 377.423 52.4927 379.689 56.3208 381.775C60.1484 383.861 64.0872 385.767 68.1272 387.482C72.1672 389.196 76.308 390.719 80.5374 392.039C84.7673 393.358 89.0852 394.476 93.4815 395.378C97.8779 396.281 102.353 396.969 106.893 397.432C111.434 397.894 116.042 398.131 120.704 398.131C125.366 398.131 129.974 397.894 134.515 397.432C139.056 396.969 143.529 396.281 147.926 395.378C152.322 394.476 156.641 393.358 160.871 392.039C165.1 390.719 169.241 389.196 173.281 387.482C177.321 385.767 181.26 383.861 185.088 381.775C188.916 379.689 192.632 377.423 196.225 374.988C199.818 372.552 203.288 369.948 206.624 367.186C209.038 365.084 213.956 360.706 216.215 358.439C219.271 355.374 222.181 352.163 224.933 348.816C227.686 345.47 230.282 341.989 232.709 338.384C235.136 334.779 237.396 331.051 239.475 327.211C241.554 323.37 243.455 319.418 245.163 315.364C246.872 311.311 248.389 307.158 249.705 302.914C251.021 298.671 252.134 294.338 253.034 289.927C253.934 285.516 254.62 281.027 255.081 276.471C255.247 274.829 255.459 273.138 255.567 271.478C255.357 273.088 254.923 274.699 254.602 276.271C254.152 278.477 253.595 280.643 252.938 282.765C252.28 284.886 251.521 286.964 250.667 288.99C249.813 291.017 248.863 292.993 247.823 294.913C246.784 296.833 245.654 298.697 244.44 300.499C243.226 302.302 241.928 304.042 240.552 305.715C239.176 307.389 237.721 308.995 236.193 310.528C234.666 312.06 233.065 313.52 231.398 314.901C229.73 316.282 227.994 317.584 226.198 318.802C224.401 320.02 222.543 321.152 220.63 322.195C218.716 323.239 216.747 324.192 214.726 325.049C212.707 325.906 210.636 326.667 208.521 327.327C207.249 327.724 205.932 328.01 204.629 328.332C203.766 328.545 202.926 328.817 202.05 328.997C199.852 329.449 197.614 329.792 195.344 330.024C193.074 330.255 190.769 330.374 188.438 330.374C186.107 330.374 183.804 330.255 181.533 330.024C179.263 329.792 177.025 329.449 174.827 328.997C172.629 328.546 170.469 327.987 168.354 327.327C166.24 326.668 164.17 325.906 162.15 325.049C160.13 324.192 158.16 323.239 156.246 322.195C154.332 321.152 152.474 320.02 150.678 318.802C148.881 317.584 147.146 316.282 145.479 314.901C143.811 313.52 142.21 312.06 140.682 310.528C139.155 308.995 137.7 307.39 136.324 305.716C134.947 304.043 133.65 302.303 132.436 300.5C131.222 298.698 130.093 296.833 129.054 294.913C128.014 292.993 127.064 291.017 126.209 288.99C125.355 286.964 124.595 284.886 123.938 282.765C123.28 280.643 122.723 278.477 122.274 276.271C121.824 274.066 121.481 271.821 121.251 269.543C121.02 267.265 120.902 264.955 120.902 262.617C120.902 260.278 121.02 257.966 121.251 255.689C121.481 253.411 121.824 251.166 122.274 248.961C122.723 246.755 123.28 244.589 123.938 242.467C124.595 240.345 125.355 238.268 126.209 236.241C127.064 234.215 128.014 232.239 129.054 230.319C130.093 228.399 131.222 226.534 132.436 224.732C133.65 222.929 134.947 221.189 136.324 219.515C137.7 217.842 139.155 216.237 140.682 214.704C142.21 213.172 143.811 211.711 145.479 210.33C146.297 209.653 147.18 209.055 148.03 208.417C146.774 206.727 145.434 205.104 144.256 203.354C143.198 201.782 142.299 200.1 141.306 198.481C140.021 196.389 138.663 194.346 137.49 192.181C135.411 188.341 133.511 184.388 131.802 180.335C130.094 176.282 128.576 172.128 127.26 167.885Z" fill="url(#paint0_linear_32_402)"/>
<path d="M151.748 213.816C150.324 212.084 149.065 210.219 147.726 208.418C146.871 209.06 145.984 209.66 145.162 210.341C143.486 211.729 141.876 213.197 140.341 214.738C138.805 216.278 137.343 217.892 135.96 219.573C134.577 221.255 133.273 223.005 132.053 224.816C130.832 226.628 129.698 228.502 128.653 230.432C127.608 232.362 126.653 234.348 125.794 236.385C124.936 238.422 124.172 240.509 123.511 242.642C122.85 244.774 122.29 246.952 121.838 249.169C121.386 251.385 121.042 253.641 120.81 255.931C120.579 258.22 120.459 260.543 120.459 262.894C120.459 265.245 120.579 267.567 120.81 269.856C121.042 272.146 121.386 274.402 121.838 276.618C122.29 278.835 122.85 281.013 123.511 283.145C124.172 285.278 124.936 287.365 125.794 289.402C126.653 291.439 127.608 293.425 128.653 295.355C129.698 297.285 130.832 299.159 132.053 300.971C133.273 302.782 134.577 304.532 135.96 306.214C137.343 307.895 138.805 309.509 140.341 311.049C141.876 312.59 143.486 314.057 145.162 315.445C146.838 316.833 148.582 318.142 150.387 319.366C152.193 320.59 154.061 321.728 155.984 322.777C157.908 323.825 159.888 324.783 161.918 325.645C163.948 326.506 166.029 327.272 168.154 327.935C170.28 328.598 172.45 329.16 174.66 329.613C176.869 330.067 179.118 330.413 181.4 330.645C183.682 330.878 185.997 330.997 188.34 330.997C190.683 330.997 192.999 330.878 195.281 330.645C197.563 330.412 199.812 330.067 202.021 329.613C202.902 329.433 203.746 329.159 204.614 328.944C205.923 328.621 207.247 328.334 208.526 327.935C210.651 327.272 212.733 326.506 214.763 325.645C216.793 324.783 218.772 323.825 220.696 322.777C222.619 321.728 224.487 320.59 226.292 319.366C228.098 318.142 229.842 316.833 231.519 315.445C233.195 314.057 234.804 312.59 236.339 311.049C237.874 309.509 239.336 307.894 240.72 306.213C242.103 304.531 243.408 302.781 244.628 300.97C245.848 299.158 246.983 297.285 248.028 295.355C249.073 293.425 250.028 291.439 250.887 289.402C251.745 287.365 252.508 285.278 253.169 283.145C253.83 281.013 254.389 278.835 254.841 276.618C255.164 275.038 255.364 273.416 255.576 271.798C255.757 268.994 255.99 266.204 256 263.356C251.49 263.339 247.025 263.127 242.628 262.679C238.064 262.214 233.568 261.522 229.149 260.614C227.696 260.316 217.573 257.602 216.138 257.258C211.887 255.931 207.725 254.401 203.665 252.678C199.604 250.955 195.645 249.039 191.797 246.943C187.95 244.846 184.214 242.568 180.603 240.12C176.992 237.672 173.505 235.055 170.152 232.279C166.799 229.503 163.582 226.569 160.512 223.488C157.44 220.406 154.515 217.179 151.748 213.816Z" fill="white"/>
<path d="M360.253 213.816C361.677 212.084 362.936 210.22 364.275 208.418C365.129 209.06 366.017 209.661 366.839 210.341C368.515 211.729 370.125 213.197 371.66 214.738C373.195 216.278 374.658 217.892 376.041 219.573C377.424 221.255 378.728 223.005 379.948 224.816C381.168 226.628 382.303 228.502 383.348 230.432C384.393 232.362 385.348 234.348 386.207 236.385C387.065 238.422 387.829 240.509 388.49 242.642C389.151 244.775 389.71 246.952 390.163 249.169C390.615 251.385 390.959 253.642 391.191 255.931C391.422 258.22 391.542 260.543 391.542 262.894C391.542 265.245 391.422 267.567 391.191 269.856C390.959 272.146 390.615 274.402 390.163 276.619C389.71 278.835 389.151 281.013 388.49 283.145C387.829 285.278 387.065 287.365 386.207 289.402C385.348 291.439 384.393 293.425 383.348 295.355C382.303 297.285 381.168 299.159 379.948 300.971C378.728 302.783 377.424 304.532 376.041 306.214C374.658 307.895 373.195 309.509 371.66 311.05C370.125 312.59 368.515 314.058 366.839 315.445C365.163 316.833 363.419 318.142 361.614 319.366C359.808 320.59 357.94 321.728 356.017 322.777C354.093 323.825 352.113 324.783 350.083 325.645C348.053 326.506 345.972 327.272 343.847 327.935C341.721 328.598 339.551 329.16 337.341 329.613C335.132 330.067 332.883 330.413 330.601 330.645C328.319 330.878 326.004 330.997 323.661 330.997C321.318 330.997 319.001 330.878 316.72 330.645C314.438 330.413 312.189 330.067 309.98 329.613C309.099 329.433 308.255 329.159 307.387 328.944C306.078 328.621 304.754 328.334 303.475 327.935C301.35 327.272 299.268 326.506 297.238 325.645C295.208 324.783 293.229 323.825 291.305 322.777C289.382 321.728 287.514 320.59 285.709 319.366C283.903 318.142 282.159 316.833 280.482 315.445C278.806 314.058 277.197 312.59 275.662 311.05C274.127 309.509 272.665 307.894 271.281 306.213C269.898 304.531 268.593 302.782 267.373 300.97C266.153 299.158 265.018 297.285 263.973 295.355C262.928 293.425 261.973 291.439 261.114 289.402C260.256 287.366 259.493 285.278 258.832 283.145C258.171 281.013 257.612 278.835 257.16 276.619C256.837 275.038 256.637 273.416 256.425 271.798C256.244 268.994 256.011 266.204 256 263.356C260.511 263.339 264.976 263.127 269.373 262.679C273.937 262.214 278.433 261.522 282.852 260.614C284.305 260.316 294.428 257.603 295.863 257.258C300.114 255.931 304.276 254.401 308.336 252.678C312.397 250.955 316.356 249.039 320.204 246.943C324.051 244.846 327.787 242.568 331.398 240.12C335.009 237.672 338.496 235.055 341.849 232.279C345.202 229.503 348.419 226.569 351.489 223.488C354.561 220.407 357.486 217.179 360.253 213.816Z" fill="white"/>
<path d="M384.735 167.885C385.683 164.826 386.4 161.671 387.134 158.523C386.992 161.641 386.664 164.709 386.664 167.862C386.664 174.6 386.997 181.304 387.656 187.951C388.209 193.546 389.12 199.073 390.129 204.575C390.318 205.609 390.388 206.669 390.593 207.699C391.891 214.21 393.503 220.643 395.421 226.974C397.34 233.305 399.564 239.535 402.085 245.642C404.607 251.749 407.424 257.732 410.53 263.569C413.636 269.407 417.028 275.099 420.7 280.624C424.372 286.148 428.323 291.505 432.543 296.671C436.762 301.838 441.25 306.815 446 311.579C450.749 316.344 455.709 320.848 460.859 325.081C465.382 328.8 470.108 332.221 474.908 335.516C480.414 339.2 488.034 344.049 493.853 347.165C494.551 347.539 495.294 347.816 495.995 348.181C493.242 351.527 489.859 355.375 486.803 358.44C483.748 361.506 480.546 364.425 477.211 367.187C474.187 369.69 470.048 372.752 466.812 374.988C463.219 377.424 459.503 379.69 455.674 381.776C451.847 383.862 447.908 385.768 443.868 387.482C439.828 389.197 435.687 390.719 431.458 392.039C427.228 393.359 422.91 394.476 418.514 395.379C414.117 396.281 409.643 396.97 405.102 397.432C400.561 397.895 395.954 398.132 391.291 398.132C386.629 398.132 382.021 397.895 377.481 397.432C372.94 396.97 368.466 396.281 364.069 395.379C359.673 394.476 355.354 393.359 351.125 392.039C346.895 390.719 342.754 389.197 338.714 387.482C334.674 385.768 330.735 383.862 326.907 381.776C323.079 379.69 319.363 377.424 315.77 374.988C312.177 372.553 308.707 369.948 305.372 367.187C302.957 365.084 298.039 360.707 295.78 358.44C292.724 355.375 289.814 352.163 287.062 348.817C284.309 345.471 281.714 341.989 279.286 338.385C276.859 334.78 274.6 331.052 272.52 327.211C270.441 323.371 268.541 319.418 266.832 315.365C265.124 311.312 263.606 307.158 262.29 302.915C260.975 298.672 259.861 294.338 258.961 289.927C258.062 285.517 257.376 281.028 256.915 276.472C256.748 274.829 256.536 273.139 256.428 271.479C256.639 273.089 257.073 274.7 257.393 276.272C257.843 278.477 258.4 280.644 259.058 282.765C259.715 284.887 260.474 286.964 261.328 288.991C262.183 291.018 263.132 292.993 264.172 294.913C265.211 296.834 266.341 298.697 267.555 300.5C268.769 302.302 270.067 304.043 271.443 305.716C272.82 307.389 274.274 308.995 275.802 310.528C277.329 312.061 278.93 313.521 280.598 314.902C282.266 316.283 284.001 317.585 285.797 318.803C287.594 320.02 289.452 321.153 291.366 322.196C293.28 323.239 295.249 324.192 297.269 325.049C299.289 325.907 301.359 326.668 303.474 327.328C304.746 327.725 306.063 328.01 307.366 328.332C308.229 328.546 309.07 328.818 309.946 328.998C312.144 329.449 314.381 329.793 316.652 330.024C318.922 330.256 321.226 330.374 323.557 330.375C325.888 330.375 328.191 330.256 330.462 330.024C332.732 329.793 334.97 329.449 337.168 328.998C339.367 328.547 341.526 327.988 343.641 327.328C345.756 326.668 347.825 325.907 349.845 325.049C351.865 324.192 353.835 323.239 355.749 322.196C357.663 321.153 359.521 320.02 361.318 318.803C363.114 317.585 364.849 316.283 366.516 314.902C368.184 313.521 369.786 312.061 371.313 310.528C372.841 308.995 374.295 307.39 375.672 305.717C377.048 304.044 378.346 302.303 379.559 300.501C380.773 298.698 381.902 296.834 382.942 294.913C383.981 292.993 384.931 291.018 385.786 288.991C386.64 286.964 387.4 284.887 388.057 282.765C388.715 280.644 389.272 278.477 389.722 276.272C390.171 274.066 390.514 271.822 390.745 269.544C390.975 267.266 391.094 264.956 391.094 262.617C391.094 260.278 390.975 257.967 390.745 255.689C390.514 253.411 390.171 251.167 389.722 248.961C389.272 246.756 388.715 244.589 388.057 242.468C387.4 240.346 386.64 238.269 385.786 236.242C384.931 234.215 383.981 232.24 382.942 230.32C381.902 228.399 380.773 226.535 379.559 224.732C378.346 222.93 377.048 221.189 375.672 219.516C374.295 217.843 372.841 216.238 371.313 214.705C369.786 213.172 368.184 211.712 366.516 210.331C365.698 209.654 364.816 209.056 363.966 208.417C365.221 206.728 366.561 205.104 367.739 203.355C368.798 201.783 369.696 200.1 370.689 198.482C371.974 196.39 373.332 194.347 374.505 192.181C376.584 188.341 378.484 184.389 380.193 180.336C381.902 176.282 383.419 172.129 384.735 167.885Z" fill="url(#paint1_linear_32_402)"/>
<path d="M241.758 158.955C246.299 159.417 251.318 159.654 255.981 159.654C260.643 159.654 265.662 159.436 270.203 158.973C274.744 158.51 279.218 157.822 283.614 156.919C288.011 156.017 292.329 154.9 296.559 153.58C300.788 152.26 304.928 150.737 308.968 149.023C313.008 147.309 316.948 145.403 320.776 143.316C324.604 141.23 328.32 138.964 331.913 136.529C335.506 134.094 338.976 131.489 342.311 128.727C345.647 125.966 348.847 123.046 351.903 119.981C354.959 116.915 357.868 113.704 360.621 110.358C363.374 107.011 365.97 103.53 368.398 99.9256C370.825 96.3208 373.084 92.592 375.163 88.7516C377.242 84.9113 379.142 80.9589 380.851 76.9057C380.973 76.6169 381.054 76.3082 381.174 76.0183C382.736 79.7962 384.171 83.6409 385.393 87.5821C386.708 91.8255 387.822 96.1578 388.721 100.569C389.621 104.979 390.307 109.469 390.768 114.024C391.233 118.619 391.468 123.262 391.468 127.88C391.468 132.558 391.232 137.18 390.771 141.736C390.31 146.291 389.624 150.78 388.724 155.191C387.838 159.536 386.705 163.946 385.393 168.178C384.078 172.421 382.559 176.575 380.851 180.628C379.142 184.681 377.242 188.634 375.163 192.474C373.948 194.718 372.546 196.838 371.21 199.003C369.051 202.504 366.815 205.785 364.348 209.081C363.102 210.745 361.941 212.477 360.621 214.08C357.868 217.427 354.959 220.638 351.903 223.703C348.847 226.769 345.647 229.688 342.311 232.45C338.976 235.212 335.506 237.816 331.913 240.251C328.32 242.686 324.604 244.953 320.776 247.039C316.948 249.125 313.008 251.031 308.968 252.745C304.928 254.46 300.788 255.982 296.559 257.302C292.341 258.619 287.946 259.752 283.612 260.642C279.216 261.544 274.742 262.233 270.201 262.695C265.66 263.158 260.643 263.395 255.981 263.395C251.318 263.395 246.301 263.14 241.76 262.677C237.219 262.215 232.745 261.526 228.349 260.623C224.015 259.734 219.621 258.6 215.402 257.284C211.173 255.964 207.033 254.441 202.993 252.727C198.953 251.013 195.013 249.107 191.185 247.021C187.357 244.935 183.641 242.668 180.048 240.233C176.455 237.798 172.985 235.193 169.65 232.432C166.314 229.67 163.114 226.75 160.058 223.685C157.002 220.619 154.093 217.408 151.34 214.062C150.021 212.458 148.859 210.727 147.613 209.063C146.259 207.254 144.828 205.507 143.563 203.629C141.169 200.073 138.835 196.217 136.798 192.456C134.719 188.615 132.819 184.663 131.11 180.61C129.402 176.556 127.884 172.403 126.568 168.16C125.256 163.928 124.123 159.518 123.237 155.172C122.337 150.762 121.651 146.273 121.19 141.718C120.729 137.162 120.493 132.539 120.493 127.862C120.493 123.244 120.728 118.601 121.193 114.006C121.654 109.45 122.34 104.961 123.24 100.55C124.139 96.1395 125.253 91.8072 126.568 87.5638C127.79 83.6226 129.226 79.7779 130.787 76C130.907 76.2899 130.988 76.5986 131.11 76.8874C132.819 80.9406 134.719 84.893 136.798 88.7333C138.877 92.5737 141.136 96.3025 143.563 99.9073C145.991 103.512 148.587 106.993 151.34 110.339C154.093 113.686 157.002 116.897 160.058 119.962C163.114 123.028 166.314 125.947 169.65 128.709C172.985 131.471 176.455 134.075 180.048 136.511C183.641 138.946 187.357 141.212 191.185 143.298C195.013 145.384 198.953 147.29 202.993 149.005C207.033 150.719 211.173 152.242 215.402 153.562C219.632 154.882 223.95 155.999 228.347 156.901C232.743 157.804 237.217 158.492 241.758 158.955Z" fill="url(#paint2_linear_32_402)"/>
<path d="M241.758 158.955C246.299 159.417 251.318 159.654 255.981 159.654C260.643 159.654 265.662 159.436 270.203 158.973C274.744 158.51 279.218 157.822 283.614 156.919C288.011 156.017 292.329 154.9 296.559 153.58C300.788 152.26 304.928 150.737 308.968 149.023C313.008 147.309 316.948 145.403 320.776 143.316C324.604 141.23 328.32 138.964 331.913 136.529C335.506 134.094 338.976 131.489 342.311 128.727C345.647 125.966 348.847 123.046 351.903 119.981C354.959 116.915 357.868 113.704 360.621 110.358C363.374 107.011 365.97 103.53 368.398 99.9256C370.825 96.3208 373.084 92.592 375.163 88.7516C377.242 84.9113 379.142 80.9589 380.851 76.9057C380.973 76.6169 381.054 76.3082 381.174 76.0183C382.736 79.7962 384.171 83.6409 385.393 87.5821C386.708 91.8255 387.822 96.1578 388.721 100.569C389.621 104.979 390.307 109.469 390.768 114.024C391.233 118.619 391.468 123.262 391.468 127.88C391.468 132.558 391.232 137.18 390.771 141.736C390.31 146.291 389.624 150.78 388.724 155.191C387.838 159.536 386.705 163.946 385.393 168.178C384.078 172.421 382.559 176.575 380.851 180.628C379.142 184.681 377.242 188.634 375.163 192.474C373.948 194.718 372.546 196.838 371.21 199.003C369.051 202.504 366.815 205.785 364.348 209.081C363.102 210.745 361.941 212.477 360.621 214.08C357.868 217.427 354.959 220.638 351.903 223.703C348.847 226.769 345.647 229.688 342.311 232.45C338.976 235.212 335.506 237.816 331.913 240.251C328.32 242.686 324.604 244.953 320.776 247.039C316.948 249.125 313.008 251.031 308.968 252.745C304.928 254.46 300.788 255.982 296.559 257.302C292.341 258.619 287.946 259.752 283.612 260.642C279.216 261.544 274.742 262.233 270.201 262.695C265.66 263.158 260.643 263.395 255.981 263.395C251.318 263.395 246.301 263.14 241.76 262.677C237.219 262.215 232.745 261.526 228.349 260.623C224.015 259.734 219.621 258.6 215.402 257.284C211.173 255.964 207.033 254.441 202.993 252.727C198.953 251.013 195.013 249.107 191.185 247.021C187.357 244.935 183.641 242.668 180.048 240.233C176.455 237.798 172.985 235.193 169.65 232.432C166.314 229.67 163.114 226.75 160.058 223.685C157.002 220.619 154.093 217.408 151.34 214.062C150.021 212.458 148.859 210.727 147.613 209.063C146.259 207.254 144.828 205.507 143.563 203.629C141.169 200.073 138.835 196.217 136.798 192.456C134.719 188.615 132.819 184.663 131.11 180.61C129.402 176.556 127.884 172.403 126.568 168.16C125.256 163.928 124.123 159.518 123.237 155.172C122.337 150.762 121.651 146.273 121.19 141.718C120.729 137.162 120.493 132.539 120.493 127.862C120.493 123.244 120.728 118.601 121.193 114.006C121.654 109.45 122.34 104.961 123.24 100.55C124.139 96.1395 125.253 91.8072 126.568 87.5638C127.79 83.6226 129.226 79.7779 130.787 76C130.907 76.2899 130.988 76.5986 131.11 76.8874C132.819 80.9406 134.719 84.893 136.798 88.7333C138.877 92.5737 141.136 96.3025 143.563 99.9073C145.991 103.512 148.587 106.993 151.34 110.339C154.093 113.686 157.002 116.897 160.058 119.962C163.114 123.028 166.314 125.947 169.65 128.709C172.985 131.471 176.455 134.075 180.048 136.511C183.641 138.946 187.357 141.212 191.185 143.298C195.013 145.384 198.953 147.29 202.993 149.005C207.033 150.719 211.173 152.242 215.402 153.562C219.632 154.882 223.95 155.999 228.347 156.901C232.743 157.804 237.217 158.492 241.758 158.955Z" fill="url(#paint3_linear_32_402)"/>
<defs>
<linearGradient id="paint0_linear_32_402" x1="184.506" y1="278.327" x2="70.3654" y2="355.221" gradientUnits="userSpaceOnUse">
<stop stop-color="#FF734E"/>
<stop offset="1" stop-color="#FFAA95"/>
</linearGradient>
<linearGradient id="paint1_linear_32_402" x1="327.072" y1="278.328" x2="422.836" y2="350.842" gradientUnits="userSpaceOnUse">
<stop stop-color="#FF734E"/>
<stop offset="1" stop-color="#FFAA95"/>
</linearGradient>
<linearGradient id="paint2_linear_32_402" x1="147.762" y1="146.175" x2="256.36" y2="263.042" gradientUnits="userSpaceOnUse">
<stop stop-color="#FFAA95"/>
<stop offset="1" stop-color="#FF734C"/>
</linearGradient>
<linearGradient id="paint3_linear_32_402" x1="368.148" y1="110.233" x2="255.505" y2="263.044" gradientUnits="userSpaceOnUse">
<stop stop-color="#FFAA95"/>
<stop offset="1" stop-color="#FF734E" stop-opacity="0"/>
</linearGradient>
</defs>
</svg>
