<svg viewBox="0 0 48 48" fill="none" xmlns="http://www.w3.org/2000/svg">
<path d="M11.9125 15.7392C11.8237 15.4524 11.7566 15.1566 11.688 14.8615C11.7012 15.1538 11.7319 15.4415 11.7319 15.737C11.7319 16.3687 11.7007 16.9972 11.6391 17.6203C11.5873 18.1449 11.502 18.6631 11.4076 19.1788C11.3899 19.2758 11.3833 19.3752 11.3641 19.4717C11.2427 20.0822 11.0918 20.6852 10.9122 21.2788C10.7326 21.8723 10.5244 22.4564 10.2884 23.0289C10.0524 23.6014 9.78861 24.1623 9.4979 24.7096C9.20714 25.2569 8.88962 25.7905 8.5459 26.3084C8.20219 26.8263 7.83232 27.3285 7.43733 27.8129C7.04239 28.2973 6.62224 28.7638 6.17769 29.2105C5.73314 29.6572 5.26878 30.0794 4.78671 30.4763C4.36333 30.8249 3.92095 31.1456 3.47162 31.4545C2.9562 31.7999 2.24294 32.2546 1.69822 32.5467C1.63294 32.5817 1.56339 32.6077 1.49772 32.6419C1.75541 32.9556 2.07212 33.3163 2.35815 33.6037C2.64418 33.8911 2.94388 34.1648 3.2561 34.4237C3.53911 34.6584 3.92656 34.9455 4.22946 35.1551C4.56581 35.3834 4.9137 35.5959 5.27204 35.7914C5.63033 35.987 5.99903 36.1657 6.3772 36.3264C6.75537 36.4872 7.14299 36.6299 7.53889 36.7536C7.93484 36.8774 8.33903 36.9821 8.75056 37.0667C9.16208 37.1513 9.58095 37.2159 10.006 37.2592C10.4311 37.3026 10.8624 37.3248 11.2988 37.3248C11.7352 37.3248 12.1665 37.3026 12.5916 37.2592C13.0166 37.2159 13.4354 37.1513 13.847 37.0667C14.2585 36.9821 14.6628 36.8774 15.0587 36.7536C15.4546 36.6299 15.8422 36.4872 16.2204 36.3264C16.5985 36.1657 16.9673 35.987 17.3256 35.7914C17.6839 35.5959 18.0318 35.3834 18.3681 35.1551C18.7045 34.9268 19.0293 34.6826 19.3415 34.4237C19.5675 34.2266 20.0279 33.8162 20.2393 33.6037C20.5254 33.3163 20.7978 33.0153 21.0554 32.7015C21.3131 32.3878 21.556 32.0615 21.7833 31.7235C22.0105 31.3856 22.222 31.036 22.4166 30.676C22.6113 30.316 22.7891 29.9454 22.9491 29.5654C23.109 29.1854 23.251 28.7961 23.3742 28.3982C23.4974 28.0004 23.6016 27.5942 23.6858 27.1806C23.77 26.7671 23.8343 26.3463 23.8774 25.9192C23.893 25.7652 23.9129 25.6067 23.9229 25.4511C23.9032 25.602 23.8626 25.753 23.8326 25.9004C23.7905 26.1072 23.7384 26.3103 23.6768 26.5092C23.6153 26.7081 23.5442 26.9029 23.4643 27.0929C23.3843 27.2828 23.2954 27.4681 23.1981 27.6481C23.1008 27.8281 22.995 28.0028 22.8814 28.1718C22.7678 28.3408 22.6463 28.504 22.5174 28.6608C22.3886 28.8177 22.2524 28.9683 22.1094 29.112C21.9664 29.2557 21.8166 29.3925 21.6605 29.522C21.5044 29.6515 21.3419 29.7735 21.1738 29.8877C21.0056 30.0019 20.8317 30.108 20.6526 30.2058C20.4734 30.3036 20.2891 30.393 20.1 30.4733C19.9109 30.5537 19.7171 30.6251 19.5191 30.687C19.4001 30.7242 19.2768 30.7509 19.1548 30.7811C19.074 30.8011 18.9953 30.8266 18.9133 30.8435C18.7076 30.8858 18.4981 30.918 18.2856 30.9397C18.0731 30.9614 17.8574 30.9726 17.6392 30.9726C17.421 30.9726 17.2054 30.9614 16.9929 30.9397C16.7803 30.9181 16.5709 30.8858 16.3651 30.8435C16.1593 30.8012 15.9572 30.7488 15.7592 30.687C15.5613 30.6251 15.3675 30.5537 15.1784 30.4733C14.9893 30.393 14.8049 30.3036 14.6258 30.2058C14.4466 30.108 14.2727 30.0019 14.1045 29.8877C13.9364 29.7735 13.774 29.6515 13.6179 29.522C13.4618 29.3925 13.3119 29.2557 13.1689 29.112C13.0259 28.9683 12.8897 28.8178 12.7609 28.6609C12.632 28.5041 12.5106 28.3409 12.397 28.1719C12.2833 28.0029 12.1777 27.8281 12.0804 27.6481C11.983 27.4681 11.8941 27.2829 11.8141 27.0929C11.7342 26.9029 11.663 26.7081 11.6015 26.5092C11.5399 26.3103 11.4878 26.1072 11.4457 25.9004C11.4036 25.6937 11.3715 25.4832 11.3499 25.2697C11.3284 25.0561 11.3173 24.8396 11.3173 24.6203C11.3173 24.401 11.3284 24.1844 11.3499 23.9708C11.3715 23.7573 11.4036 23.5468 11.4457 23.3401C11.4878 23.1333 11.5399 22.9302 11.6015 22.7313C11.663 22.5324 11.7342 22.3376 11.8141 22.1476C11.8941 21.9577 11.983 21.7724 12.0804 21.5924C12.1777 21.4124 12.2833 21.2376 12.397 21.0686C12.5106 20.8996 12.632 20.7364 12.7609 20.5796C12.8897 20.4227 13.0259 20.2722 13.1689 20.1285C13.3119 19.9848 13.4618 19.8479 13.6179 19.7185C13.6945 19.655 13.7771 19.599 13.8567 19.5391C13.7391 19.3807 13.6137 19.2285 13.5034 19.0645C13.4043 18.9171 13.3203 18.7593 13.2273 18.6076C13.107 18.4115 12.9799 18.22 12.8701 18.017C12.6754 17.6569 12.4976 17.2864 12.3377 16.9064C12.1777 16.5264 12.0357 16.137 11.9125 15.7392Z" fill="#292635"/>
<path d="M36.014 15.7393C36.1028 15.4525 36.1699 15.1567 36.2385 14.8616C36.2253 15.1539 36.1946 15.4415 36.1946 15.7371C36.1946 16.3688 36.2258 16.9973 36.2874 17.6204C36.3392 18.145 36.4245 18.6631 36.5189 19.1789C36.5366 19.2758 36.5432 19.3752 36.5624 19.4718C36.6838 20.0822 36.8347 20.6853 37.0143 21.2788C37.1939 21.8724 37.4021 22.4564 37.6381 23.0289C37.8741 23.6014 38.1379 24.1623 38.4286 24.7096C38.7194 25.2569 39.0369 25.7906 39.3806 26.3085C39.7243 26.8264 40.0942 27.3286 40.4892 27.8129C40.8841 28.2973 41.3043 28.7639 41.7488 29.2106C42.1934 29.6573 42.6577 30.0795 43.1398 30.4764C43.5632 30.825 44.0056 31.1457 44.4549 31.4546C44.9703 31.8 45.6836 32.2547 46.2283 32.5468C46.2936 32.5818 46.3631 32.6077 46.4288 32.642C46.1711 32.9557 45.8544 33.3164 45.5684 33.6038C45.2823 33.8912 44.9826 34.1649 44.6704 34.4238C44.3874 34.6584 43.9999 34.9455 43.697 35.1552C43.3607 35.3835 43.0128 35.5959 42.6545 35.7915C42.2962 35.9871 41.9275 36.1658 41.5493 36.3265C41.1711 36.4872 40.7835 36.6299 40.3876 36.7537C39.9917 36.8774 39.5875 36.9821 39.176 37.0668C38.7644 37.1514 38.3456 37.2159 37.9205 37.2593C37.4955 37.3027 37.0642 37.3249 36.6277 37.3249C36.1913 37.3249 35.76 37.3027 35.3349 37.2593C34.9099 37.2159 34.4911 37.1514 34.0795 37.0668C33.668 36.9821 33.2637 36.8774 32.8678 36.7537C32.4719 36.6299 32.0843 36.4872 31.7061 36.3265C31.328 36.1658 30.9592 35.9871 30.6009 35.7915C30.2426 35.5959 29.8948 35.3835 29.5584 35.1552C29.222 34.9268 28.8972 34.6827 28.585 34.4238C28.359 34.2267 27.8987 33.8163 27.6872 33.6038C27.4011 33.3164 27.1287 33.0153 26.8711 32.7016C26.6134 32.3879 26.3705 32.0615 26.1432 31.7236C25.916 31.3856 25.7045 31.0361 25.5099 30.6761C25.3152 30.316 25.1374 29.9455 24.9774 29.5655C24.8175 29.1855 24.6755 28.7961 24.5523 28.3983C24.4291 28.0005 24.3249 27.5942 24.2407 27.1807C24.1565 26.7672 24.0922 26.3463 24.0491 25.9193C24.0335 25.7652 24.0137 25.6067 24.0036 25.4512C24.0233 25.6021 24.0639 25.7531 24.0939 25.9005C24.136 26.1073 24.1881 26.3104 24.2497 26.5093C24.3112 26.7082 24.3823 26.9029 24.4622 27.0929C24.5422 27.2829 24.6311 27.4681 24.7284 27.6481C24.8257 27.8282 24.9315 28.0029 25.0451 28.1719C25.1587 28.3408 25.2802 28.504 25.4091 28.6609C25.5379 28.8178 25.6741 28.9683 25.8171 29.112C25.9601 29.2557 26.1099 29.3926 26.266 29.5221C26.4221 29.6515 26.5846 29.7736 26.7527 29.8878C26.9209 30.0019 27.0948 30.1081 27.274 30.2059C27.4531 30.3037 27.6374 30.393 27.8265 30.4734C28.0156 30.5537 28.2095 30.6251 28.4074 30.687C28.5264 30.7242 28.6498 30.751 28.7717 30.7812C28.8525 30.8012 28.9312 30.8267 29.0132 30.8436C29.2189 30.8859 29.4284 30.9181 29.6409 30.9398C29.8534 30.9615 30.0691 30.9726 30.2873 30.9726C30.5055 30.9726 30.7211 30.9615 30.9336 30.9398C31.1462 30.9181 31.3556 30.8859 31.5614 30.8436C31.7672 30.8013 31.9694 30.7489 32.1673 30.687C32.3653 30.6251 32.559 30.5537 32.7481 30.4734C32.9372 30.393 33.1216 30.3037 33.3007 30.2059C33.4799 30.1081 33.6538 30.0019 33.822 29.8878C33.9901 29.7736 34.1525 29.6515 34.3086 29.5221C34.4647 29.3926 34.6146 29.2557 34.7576 29.112C34.9006 28.9683 35.0368 28.8178 35.1656 28.661C35.2945 28.5041 35.4159 28.3409 35.5295 28.172C35.6432 28.003 35.7488 27.8282 35.8461 27.6481C35.9435 27.4681 36.0324 27.2829 36.1124 27.0929C36.1923 26.9029 36.2635 26.7082 36.325 26.5093C36.3866 26.3104 36.4387 26.1073 36.4808 25.9005C36.5229 25.6937 36.555 25.4833 36.5766 25.2697C36.5981 25.0562 36.6092 24.8396 36.6092 24.6204C36.6092 24.4011 36.5981 24.1844 36.5766 23.9709C36.555 23.7573 36.5229 23.5469 36.4808 23.3401C36.4387 23.1334 36.3866 22.9303 36.325 22.7314C36.2635 22.5325 36.1923 22.3377 36.1124 22.1477C36.0324 21.9577 35.9435 21.7725 35.8461 21.5925C35.7488 21.4125 35.6432 21.2376 35.5295 21.0687C35.4159 20.8997 35.2945 20.7365 35.1656 20.5796C35.0368 20.4228 34.9006 20.2723 34.7576 20.1286C34.6146 19.9849 34.4647 19.848 34.3086 19.7185C34.232 19.655 34.1494 19.599 34.0698 19.5391C34.1874 19.3807 34.3128 19.2285 34.4231 19.0646C34.5222 18.9172 34.6062 18.7594 34.6992 18.6077C34.8195 18.4116 34.9466 18.22 35.0564 18.017C35.2511 17.657 35.4289 17.2865 35.5888 16.9065C35.7488 16.5265 35.8908 16.1371 36.014 15.7393Z" fill="#292635"/>
<path d="M22.6303 14.902C23.0554 14.9454 23.5252 14.9676 23.9617 14.9676C24.3981 14.9676 24.8679 14.9471 25.293 14.9037C25.718 14.8604 26.1369 14.7958 26.5484 14.7112C26.9599 14.6266 27.3642 14.5219 27.7601 14.3981C28.156 14.2744 28.5435 14.1316 28.9217 13.9709C29.2999 13.8102 29.6687 13.6315 30.027 13.4359C30.3853 13.2403 30.7332 13.0279 31.0695 12.7996C31.4058 12.5713 31.7306 12.3271 32.0429 12.0682C32.3551 11.8093 32.6547 11.5356 32.9407 11.2482C33.2267 10.9608 33.4991 10.6598 33.7568 10.346C34.0145 10.0323 34.2575 9.70596 34.4847 9.36802C34.7119 9.03008 34.9234 8.6805 35.118 8.32047C35.3126 7.96043 35.4905 7.58989 35.6504 7.20991C35.6618 7.18283 35.6694 7.15389 35.6807 7.12672C35.8268 7.4809 35.9612 7.84133 36.0756 8.21083C36.1987 8.60864 36.3029 9.01479 36.3872 9.4283C36.4714 9.84182 36.5356 10.2627 36.5788 10.6898C36.6223 11.1206 36.6443 11.5558 36.6443 11.9888C36.6443 12.4273 36.6222 12.8606 36.5791 13.2877C36.5359 13.7148 36.4716 14.1356 36.3874 14.5491C36.3044 14.9565 36.1984 15.3699 36.0756 15.7667C35.9525 16.1645 35.8104 16.5539 35.6504 16.9339C35.4905 17.3139 35.3126 17.6844 35.118 18.0444C35.0043 18.2548 34.873 18.4535 34.748 18.6565C34.5459 18.9847 34.3365 19.2924 34.1056 19.6013C33.989 19.7574 33.8803 19.9197 33.7568 20.07C33.4991 20.3838 33.2267 20.6848 32.9407 20.9722C32.6547 21.2596 32.3551 21.5333 32.0429 21.7922C31.7306 22.0511 31.4058 22.2952 31.0695 22.5235C30.7332 22.7519 30.3853 22.9643 30.027 23.1599C29.6687 23.3555 29.2999 23.5341 28.9217 23.6949C28.5435 23.8556 28.156 23.9983 27.7601 24.1221C27.3652 24.2455 26.9539 24.3518 26.5482 24.4352C26.1367 24.5198 25.7179 24.5843 25.2928 24.6277C24.8677 24.6711 24.3981 24.6932 23.9617 24.6932C23.5252 24.6932 23.0556 24.6694 22.6305 24.626C22.2055 24.5826 21.7866 24.5181 21.3751 24.4334C20.9694 24.35 20.5581 24.2438 20.1632 24.1204C19.7673 23.9966 19.3798 23.8539 19.0016 23.6932C18.6234 23.5324 18.2546 23.3538 17.8964 23.1582C17.538 22.9626 17.1901 22.7501 16.8538 22.5218C16.5175 22.2935 16.1927 22.0494 15.8805 21.7905C15.5682 21.5316 15.2686 21.2578 14.9826 20.9705C14.6966 20.6831 14.4242 20.382 14.1665 20.0683C14.043 19.918 13.9343 19.7557 13.8177 19.5996C13.691 19.4301 13.5569 19.2663 13.4386 19.0903C13.2145 18.7568 12.9959 18.3953 12.8053 18.0427C12.6107 17.6827 12.4329 17.3121 12.2729 16.9321C12.1129 16.5522 11.9708 16.1628 11.8477 15.765C11.7249 15.3682 11.6189 14.9548 11.5359 14.5474C11.4517 14.1339 11.3874 13.7131 11.3442 13.286C11.3011 12.8589 11.279 12.4256 11.279 11.987C11.279 11.5541 11.301 11.1188 11.3445 10.6881C11.3877 10.261 11.4519 9.8401 11.5361 9.42659C11.6204 9.01307 11.7246 8.60693 11.8477 8.20911C11.9621 7.83961 12.0965 7.47918 12.2427 7.125C12.2539 7.15217 12.2615 7.18112 12.2729 7.20819C12.4329 7.58818 12.6107 7.95872 12.8053 8.31875C12.9999 8.67878 13.2114 9.02836 13.4386 9.36631C13.6658 9.70425 13.9088 10.0306 14.1665 10.3443C14.4242 10.658 14.6966 10.9591 14.9826 11.2465C15.2686 11.5339 15.5682 11.8076 15.8805 12.0665C16.1927 12.3254 16.5175 12.5696 16.8538 12.7979C17.1901 13.0262 17.538 13.2386 17.8964 13.4342C18.2546 13.6298 18.6234 13.8085 19.0016 13.9692C19.3798 14.1299 19.7673 14.2727 20.1632 14.3964C20.5592 14.5201 20.9634 14.6249 21.3749 14.7095C21.7864 14.7941 22.2053 14.8586 22.6303 14.902Z" fill="#292635"/>
<path d="M22.6303 14.902C23.0554 14.9454 23.5252 14.9676 23.9617 14.9676C24.3981 14.9676 24.8679 14.9471 25.293 14.9037C25.718 14.8604 26.1369 14.7958 26.5484 14.7112C26.9599 14.6266 27.3642 14.5219 27.7601 14.3981C28.156 14.2744 28.5435 14.1316 28.9217 13.9709C29.2999 13.8102 29.6687 13.6315 30.027 13.4359C30.3853 13.2403 30.7332 13.0279 31.0695 12.7996C31.4058 12.5713 31.7306 12.3271 32.0429 12.0682C32.3551 11.8093 32.6547 11.5356 32.9407 11.2482C33.2267 10.9608 33.4991 10.6598 33.7568 10.346C34.0145 10.0323 34.2575 9.70596 34.4847 9.36802C34.7119 9.03008 34.9234 8.6805 35.118 8.32047C35.3126 7.96043 35.4905 7.58989 35.6504 7.20991C35.6618 7.18283 35.6694 7.15389 35.6807 7.12672C35.8268 7.4809 35.9612 7.84133 36.0756 8.21083C36.1987 8.60864 36.3029 9.01479 36.3872 9.4283C36.4714 9.84182 36.5356 10.2627 36.5788 10.6898C36.6223 11.1206 36.6443 11.5558 36.6443 11.9888C36.6443 12.4273 36.6222 12.8606 36.5791 13.2877C36.5359 13.7148 36.4716 14.1356 36.3874 14.5491C36.3044 14.9565 36.1984 15.3699 36.0756 15.7667C35.9525 16.1645 35.8104 16.5539 35.6504 16.9339C35.4905 17.3139 35.3126 17.6844 35.118 18.0444C35.0043 18.2548 34.873 18.4535 34.748 18.6565C34.5459 18.9847 34.3365 19.2924 34.1056 19.6013C33.989 19.7574 33.8803 19.9197 33.7568 20.07C33.4991 20.3838 33.2267 20.6848 32.9407 20.9722C32.6547 21.2596 32.3551 21.5333 32.0429 21.7922C31.7306 22.0511 31.4058 22.2952 31.0695 22.5235C30.7332 22.7519 30.3853 22.9643 30.027 23.1599C29.6687 23.3555 29.2999 23.5341 28.9217 23.6949C28.5435 23.8556 28.156 23.9983 27.7601 24.1221C27.3652 24.2455 26.9539 24.3518 26.5482 24.4352C26.1367 24.5198 25.7179 24.5843 25.2928 24.6277C24.8677 24.6711 24.3981 24.6932 23.9617 24.6932C23.5252 24.6932 23.0556 24.6694 22.6305 24.626C22.2055 24.5826 21.7866 24.5181 21.3751 24.4334C20.9694 24.35 20.5581 24.2438 20.1632 24.1204C19.7673 23.9966 19.3798 23.8539 19.0016 23.6932C18.6234 23.5324 18.2546 23.3538 17.8964 23.1582C17.538 22.9626 17.1901 22.7501 16.8538 22.5218C16.5175 22.2935 16.1927 22.0494 15.8805 21.7905C15.5682 21.5316 15.2686 21.2578 14.9826 20.9705C14.6966 20.6831 14.4242 20.382 14.1665 20.0683C14.043 19.918 13.9343 19.7557 13.8177 19.5996C13.691 19.4301 13.5569 19.2663 13.4386 19.0903C13.2145 18.7568 12.9959 18.3953 12.8053 18.0427C12.6107 17.6827 12.4329 17.3121 12.2729 16.9321C12.1129 16.5522 11.9708 16.1628 11.8477 15.765C11.7249 15.3682 11.6189 14.9548 11.5359 14.5474C11.4517 14.1339 11.3874 13.7131 11.3442 13.286C11.3011 12.8589 11.279 12.4256 11.279 11.987C11.279 11.5541 11.301 11.1188 11.3445 10.6881C11.3877 10.261 11.4519 9.8401 11.5361 9.42659C11.6204 9.01307 11.7246 8.60693 11.8477 8.20911C11.9621 7.83961 12.0965 7.47918 12.2427 7.125C12.2539 7.15217 12.2615 7.18112 12.2729 7.20819C12.4329 7.58818 12.6107 7.95872 12.8053 8.31875C12.9999 8.67878 13.2114 9.02836 13.4386 9.36631C13.6658 9.70425 13.9088 10.0306 14.1665 10.3443C14.4242 10.658 14.6966 10.9591 14.9826 11.2465C15.2686 11.5339 15.5682 11.8076 15.8805 12.0665C16.1927 12.3254 16.5175 12.5696 16.8538 12.7979C17.1901 13.0262 17.538 13.2386 17.8964 13.4342C18.2546 13.6298 18.6234 13.8085 19.0016 13.9692C19.3798 14.1299 19.7673 14.2727 20.1632 14.3964C20.5592 14.5201 20.9634 14.6249 21.3749 14.7095C21.7864 14.7941 22.2053 14.8586 22.6303 14.902Z" fill="#292635"/>
</svg>
